<svg width="359" height="89" viewBox="0 0 359 89" fill="none" xmlns="http://www.w3.org/2000/svg">
<path d="M128.995 27.9116V46.9116H151.805V48.1416H128.995V68.4216H155.495V69.6516H127.765V26.6516H154.625V27.8816L128.995 27.9116Z" fill="#25283C"/>
<path d="M242.485 69.6516V26.6516H243.715V69.6516H242.485Z" fill="#25283C"/>
<path d="M196.435 69.6517V60.7517H197.665V69.6517H196.435Z" fill="#25283C"/>
<path d="M287.305 27.9116V69.6516H286.075V27.9116H271.315V26.6816H302.055V27.9116H287.305Z" fill="#25283C"/>
<path d="M358.765 69.6517H319.605L339.185 24.7317L358.765 69.6517ZM321.615 68.3417H356.765L339.185 28.0117L321.615 68.3417Z" fill="#25283C"/>
<path d="M212.505 27.0415H211.075L197.055 59.2215L183.025 27.0415H181.595L197.055 62.5015L212.505 27.0415Z" fill="#25283C"/>
<path d="M79.6846 31.6016L73.2346 38.0516C74.8055 43.7067 74.8472 49.6773 73.3556 55.3538C71.864 61.0303 68.8925 66.2092 64.7446 70.3616L64.1946 70.8816C59.1293 75.7136 52.6643 78.818 45.7262 79.7499C38.7881 80.6818 31.7331 79.3934 25.5722 76.0694C19.4114 72.7453 14.4609 67.5562 11.4304 61.2458C8.39991 54.9353 7.44488 47.8275 8.70221 40.9409C9.95954 34.0544 13.3647 27.7426 18.4296 22.9102C23.4946 18.0778 29.9593 14.9729 36.8973 14.0404C43.8353 13.1079 50.8904 14.3957 57.0516 17.7192C63.2127 21.0427 68.1636 26.2314 71.1946 32.5416L77.1946 26.4916C71.8985 17.1852 63.195 10.2996 52.9197 7.28699C42.6444 4.27437 31.6007 5.3703 22.118 10.3436C12.6352 15.3169 5.45462 23.7788 2.09083 33.9446C-1.27296 44.1103 -0.557039 55.1851 4.0876 64.8331C8.73225 74.4811 16.9425 81.9481 26.9867 85.6591C37.0309 89.3701 48.1237 89.035 57.9256 84.7245C67.7275 80.414 75.4721 72.4651 79.5259 62.5544C83.5797 52.6436 83.6259 41.5457 79.6546 31.6016H79.6846Z" fill="#25283C"/>
<path d="M63.8661 7.75698L39.3224 32.3007C35.0383 36.5847 35.0383 43.5305 39.3224 47.8146L39.8527 48.3449C44.1368 52.629 51.0826 52.629 55.3666 48.3449L79.9103 23.8012C84.1944 19.5172 84.1944 12.5714 79.9103 8.28731L79.38 7.75698C75.0959 3.47293 68.1501 3.47293 63.8661 7.75698Z" fill="#25283C"/>
</svg>
